HIERARCHY
ROOT Bip001_Pelvis
{
  OFFSET 34.4345 95.6767 -26.8758
  CHANNELS 6 Xposition Yposition Zposition Zrotation Xrotation Yrotation
  JOINT Bip001_Spine
  {
    OFFSET 1.4188e-005 10.2191 -0.0116013
    CHANNELS 3 Zrotation Xrotation Yrotation
    JOINT Bip001_L_Thigh
    {
      OFFSET 11.0458 -10.2192 0.0116197
      CHANNELS 3 Zrotation Xrotation Yrotation
      JOINT Bip001_L_Calf
      {
        OFFSET -0.707118 -44.0221 0.360014
        CHANNELS 3 Zrotation Xrotation Yrotation
        JOINT Bip001_L_Foot
        {
          OFFSET -0.651902 -40.5938 -3.56146
          CHANNELS 3 Zrotation Xrotation Yrotation
          JOINT Bip001_L_Toe0
          {
            OFFSET 0.0530839 -10.2181 13.1504
            CHANNELS 3 Zrotation Xrotation Yrotation
            End Site
            {
              OFFSET -1.02532e-005 0 7.55606
            }
          }
        }
      }
    }
    JOINT Bip001_R_Thigh
    {
      OFFSET -11.0458 -10.2191 0.0115893
      CHANNELS 3 Zrotation Xrotation Yrotation
      JOINT Bip001_R_Calf
      {
        OFFSET 0.706994 -44.0221 0.35984
        CHANNELS 3 Zrotation Xrotation Yrotation
        JOINT Bip001_R_Foot
        {
          OFFSET 0.651786 -40.5938 -3.5613
          CHANNELS 3 Zrotation Xrotation Yrotation
          JOINT Bip001_R_Toe0
          {
            OFFSET -0.0531479 -10.2181 13.1504
            CHANNELS 3 Zrotation Xrotation Yrotation
            End Site
            {
              OFFSET -1.02894e-005 0 7.55606
            }
          }
        }
      }
    }
    JOINT Bip001_Spine1
    {
      OFFSET 1.87041e-005 14.5736 1.08638
      CHANNELS 3 Zrotation Xrotation Yrotation
      JOINT Bip001_Spine2
      {
        OFFSET 2.24614e-005 14.5058 -1.69078
        CHANNELS 3 Zrotation Xrotation Yrotation
        JOINT Bip001_Neck
        {
          OFFSET 2.20278e-005 15.3945 -0.489414
          CHANNELS 3 Zrotation Xrotation Yrotation
          JOINT Bip001_L_Clavicle
          {
            OFFSET 6.06036 -0.000579998 0.00836775
            CHANNELS 3 Zrotation Xrotation Yrotation
            JOINT Bip001_L_UpperArm
            {
              OFFSET 11.5509 -0.0600302 0.00193952
              CHANNELS 3 Zrotation Xrotation Yrotation
              JOINT Bip001_L_Forearm
              {
                OFFSET 25.9523 0.0806089 -2.15551
                CHANNELS 3 Zrotation Xrotation Yrotation
                JOINT Bip001_L_Hand
                {
                  OFFSET 32.2475 0.153767 1.63968
                  CHANNELS 3 Zrotation Xrotation Yrotation
                  JOINT Bip001_L_Finger0
                  {
                    OFFSET 6.04639 -2.20976 5.90322
                    CHANNELS 3 Zrotation Xrotation Yrotation
                    End Site
                    {
                      OFFSET 4.22375 -1.43895 0.606485
                    }
                  }
                  JOINT Bip001_L_Finger1
                  {
                    OFFSET 11.0826 -0.704819 -0.198153
                    CHANNELS 3 Zrotation Xrotation Yrotation
                    End Site
                    {
                      OFFSET 6.20027 -0.397518 -0.0787166
                    }
                  }
                }
              }
            }
          }
          JOINT Bip001_R_Clavicle
          {
            OFFSET -6.06037 -0.000563197 0.00835105
            CHANNELS 3 Zrotation Xrotation Yrotation
            JOINT Bip001_R_UpperArm
            {
              OFFSET -11.5509 -0.0599978 0.00190698
              CHANNELS 3 Zrotation Xrotation Yrotation
              JOINT Bip001_R_Forearm
              {
                OFFSET -25.9523 0.0806822 -2.15589
                CHANNELS 3 Zrotation Xrotation Yrotation
                JOINT Bip001_R_Hand
                {
                  OFFSET -32.2475 0.153859 1.63989
                  CHANNELS 3 Zrotation Xrotation Yrotation
                  JOINT Bip001_R_Finger0
                  {
                    OFFSET -6.04641 -2.20976 5.90317
                    CHANNELS 3 Zrotation Xrotation Yrotation
                    End Site
                    {
                      OFFSET -4.22376 -1.43895 0.60647
                    }
                  }
                  JOINT Bip001_R_Finger1
                  {
                    OFFSET -11.0826 -0.704794 -0.198182
                    CHANNELS 3 Zrotation Xrotation Yrotation
                    End Site
                    {
                      OFFSET -6.20028 -0.397504 -0.0787333
                    }
                  }
                }
              }
            }
          }
          JOINT Bip001_Head
          {
            OFFSET 1.09673e-005 11.2744 2.05948
            CHANNELS 3 Zrotation Xrotation Yrotation
            End Site
            {
              OFFSET 2.89576e-005 20.8808 -2.77728e-005
            }
          }
        }
      }
    }
  }
}
MOTION
Frames:	13
Frame Time:	0.04
32.9602 95.6376 -32.4387 -0.943668 -3.40031 -1.3268 -0.0524009 2.24134 0.375734 7.58015 -1.83513 10.785 -0.496626 10.9153 -0.98789 1.77075 -4.92517 0.027214 1.14444 -5.66279 0.0452223 -3.47925 -1.90139 -1.12895 -0.12423 10.0739 1.22896 -6.42358 -7.01974 -1.05916 2.97808 -9.73584 2.94531 -0.108445 4.48235 0.752808 -0.113947 4.48236 0.753095 7.45113 -12.004 -5.1586 -32.8407 11.0542 2.33578 -44.5943 35.7803 -0.408998 12.8828 -4.72468 -27.7433 10.1259 1.5621 -3.95508 9.54166e-015 0 6.36111e-015 6.36111e-015 -3.18056e-015 6.36111e-015 12.3562 19.7166 23.683 35.7773 -5.12921 -9.60899 -53.0727 9.12308 90.1673 -3.88625 -14.987 10.0901 -0 -3.97569e-015 -0 3.18055e-015 -5.56597e-015 3.18055e-015 -4.30174 -2.32893 -2.64741 
32.8806 95.6229 -32.2803 -0.663836 -4.04269 -1.22176 -0.113413 2.48228 0.236438 7.34751 -1.16082 11.6835 -0.324357 10.4571 -1.96385 1.95125 -4.42321 0.0126322 1.20387 -5.69457 -0.0657309 -3.65435 -1.62968 -1.74804 -0.28753 10.5776 1.40194 -6.38617 -7.44356 -0.596025 2.92688 -9.61204 2.92636 -0.234925 4.96401 0.478197 -0.234233 4.96405 0.478146 6.6551 -11.7353 -4.72431 -31.9172 11.2424 1.60984 -43.2406 35.2406 -3.24325 10.8564 -8.19942 -26.8587 11.5549 1.21881 -3.65145 -6.36111e-015 -9.54166e-015 9.54166e-015 -6.36111e-015 -1.27222e-014 9.54166e-015 16.5583 19.8852 21.5559 44.4055 0.120446 -15.311 -55.2751 17.1563 73.6462 -12.6845 -17.289 8.16245 -6.36111e-015 1.98785e-015 -3.97569e-016 -3.18055e-015 5.76476e-015 -7.95139e-016 -3.69868 -2.97131 -2.48547 
32.9431 95.6534 -32.4969 -0.146069 -3.40975 -1.3878 -0.186384 2.46484 0.0585816 6.70687 -1.47822 11.7272 -0.205388 9.5461 -1.39548 1.83689 -3.77617 0.00531411 1.29908 -5.65177 -0.249241 -4.26206 -2.84599 -0.384664 0.271514 11.3498 0.956725 -6.55664 -7.51074 -1.34634 2.86771 -9.46496 2.9222 -0.383123 4.92953 0.125606 -0.379619 4.92954 0.125807 6.72131 -11.6044 -3.94761 -31.5151 11.6513 0.461923 -42.9258 35.773 -4.54829 10.3511 -9.67866 -26.9002 11.7815 1.13938 -2.83339 -3.18055e-015 -3.18055e-015 6.36111e-015 -3.18055e-015 0 3.18055e-015 17.3994 19.379 19.6102 54.8338 9.48161 -15.8102 -42.7913 18.1501 47.8725 -15.3091 -16.8569 4.33375 -3.18055e-015 -4.77083e-015 -0 -0 -1.59028e-015 -0 -3.91107 -3.69107 -1.70102 
32.8196 95.6425 -32.5496 -0.314085 -3.30512 -2.01996 -0.118482 2.62492 -0.330447 6.88696 -1.61895 12.8709 -0.174703 9.63186 -1.54367 1.97433 -3.70287 0.00225852 1.36252 -5.74863 -0.292011 -4.04048 -3.35389 -1.00758 -0.162428 11.4906 1.23264 -6.17021 -7.70221 -0.107038 2.82647 -9.37127 2.91866 -0.22157 5.25047 -0.656454 -0.221437 5.25048 -0.656513 6.41229 -11.336 -2.19002 -30.6278 12.0892 -0.29554 -41.8475 36.7957 -6.75049 10.5422 -8.60988 -26.1752 11.4439 1.13245 -3.33874 6.36111e-015 0 -0 6.36111e-015 -3.18056e-015 3.18055e-015 19.9423 19.5162 19.4324 57.7 11.722 -16.5126 -33.3337 18.023 31.5299 -17.4607 -16.6784 1.71189 6.36111e-015 -6.36111e-015 6.36111e-015 6.36111e-015 -9.54167e-015 3.18055e-015 -3.31571 -4.44838 -0.20622 
32.7337 95.6322 -32.5451 -0.568443 -3.4928 -2.92276 -0.0132994 2.81655 -0.617769 7.12237 -1.49931 13.2088 -0.346404 9.93156 -0.818573 2.07092 -3.80198 -0.00117719 1.33205 -5.77684 -0.272288 -3.81454 -3.54041 0.652936 -0.0468517 11.481 1.07829 -6.21011 -7.5168 -0.401711 2.80227 -9.28748 2.87833 -0.00560644 5.63322 -1.23745 -0.00690449 5.63317 -1.23651 6.35757 -10.7672 -0.693458 -29.6007 12.3059 -1.83464 -41.8517 38.798 -7.36974 11.8017 -6.59458 -25.867 10.5898 0.983846 -5.00543 -3.18055e-015 0 3.18055e-015 -3.18055e-015 -3.18056e-015 6.36111e-015 20.9761 18.776 18.676 59.8839 15.0711 -17.77 -27.0636 17.9071 21.3716 -18.9168 -18.9135 0.366997 1.59028e-015 -6.36111e-015 -3.18055e-015 4.77083e-015 -3.18056e-015 -3.18055e-015 -2.96091 -5.56334 1.15392 
32.8158 95.6099 -32.5404 -0.32347 -3.32366 -3.96802 -0.00548524 2.8202 -0.905532 6.62118 -1.25284 13.6002 -0.285877 9.47288 0.0520959 2.62384 -3.26568 -0.0252928 1.53971 -6.19668 -0.400295 -4.12313 -4.37787 1.24187 -0.0889043 12.3211 1.19482 -6.0856 -7.80019 0.107672 2.76446 -9.19104 2.86612 0.0399014 5.63999 -1.81399 0.0322327 5.64012 -1.814 6.69876 -9.28957 0.712743 -28.4742 11.7251 -4.19419 -43.664 40.4917 -5.95621 13.5404 -4.40713 -27.1527 10.5008 1.67829 -4.45859 -1.27222e-014 -1.59028e-015 1.59028e-015 -6.36111e-015 1.59028e-015 -0 20.9569 16.421 16.3997 61.8322 22.4956 -16.5127 -19.2644 11.9151 11.5531 -18.5047 -19.3568 -1.67687 -3.18055e-015 3.18055e-015 -0 -3.18055e-015 3.18056e-015 -3.18055e-015 -2.96124 -6.61773 2.67408 
32.8878 95.5922 -32.5186 -0.289869 -3.11004 -5.48799 0.11191 2.78844 -1.18241 6.30557 -0.968585 15.2495 -0.139724 9.28812 0.276143 2.14668 -3.50514 -0.00696096 1.37833 -5.97497 -0.371904 -4.2777 -5.1417 2.31916 -0.134542 12.8357 1.2139 -5.92141 -7.90766 0.665017 2.74892 -9.15662 2.86539 0.27894 5.5737 -2.37456 0.281938 5.5735 -2.37452 6.33433 -7.93823 2.39322 -27.4958 11.3011 -6.38153 -45.6601 41.5894 -3.89668 14.3101 -3.67818 -28.5837 10.709 1.67243 -5.12866 -3.18055e-015 1.59028e-015 1.59028e-015 -3.18055e-015 3.18056e-015 1.59028e-015 21.3056 14.0533 13.9812 62.0096 25.0932 -15.8093 -14.4328 4.27519 7.62615 -14.4216 -20.0499 -4.44872 -5.1187e-015 0 7.95139e-016 -2.23633e-015 -3.18056e-015 1.39149e-015 -2.5896 -7.31056 4.19926 
32.9942 95.5513 -32.422 -0.378471 -3.07315 -7.25875 0.326341 2.81989 -1.44858 5.94373 -0.570955 16.9387 0.00754668 9.31464 0.42955 2.19447 -3.69128 -0.00322663 1.32689 -6.03711 -0.262862 -4.48306 -5.70219 3.27652 -0.167519 13.1977 1.39754 -5.70874 -8.05825 1.43996 2.75062 -9.16173 2.86508 0.725372 5.63058 -2.91854 0.725371 5.6306 -2.91853 4.95526 -7.1438 4.26959 -25.9316 11.3196 -8.09317 -47.2492 42.5437 -2.41949 14.7984 -3.18464 -29.5629 10.4105 1.01683 -5.95723 6.36111e-015 0 -3.18055e-015 8.82782e-032 1.59028e-015 -3.18055e-015 22.2712 12.1731 11.739 62.0035 26.6654 -15.2727 -12.4976 -1.84703 5.71141 -11.548 -20.9657 -6.51411 -1.19271e-015 -1.59028e-015 1.59028e-015 -3.97569e-016 -1.59028e-015 1.59028e-015 -1.82533 -7.81429 5.63499 
33.108 95.5087 -32.2861 -0.404956 -3.13776 -8.92422 0.531532 2.89948 -1.63407 5.50949 -0.0852821 17.4212 -0.179392 9.1466 1.5213 3.4254 -3.17276 -0.045698 1.62076 -6.62235 -0.405078 -4.78909 -6.21255 3.90623 -0.176651 13.6294 1.39699 -5.40412 -8.31586 2.4132 2.7185 -9.10699 2.89395 1.14795 5.78245 -3.30136 1.14795 5.78246 -3.30138 4.13163 -6.98137 5.62065 -25.0502 11.6948 -9.26679 -48.8311 43.2913 -1.37757 14.8855 -3.62558 -30.1757 9.88451 0.730094 -5.71915 3.18055e-015 -4.77083e-015 7.95139e-016 3.18055e-015 -4.77083e-015 1.59028e-015 22.5214 10.9793 9.39793 61.3999 25.7793 -14.6016 -12.3394 -2.59481 5.49344 -11.6142 -21.582 -6.46738 -3.97569e-016 -3.18055e-015 -3.18055e-015 2.38542e-015 -1.59028e-015 -0 -1.51033 -8.11947 6.71189 
33.2454 95.511 -32.1031 -0.26702 -3.31868 -10.3859 0.629636 2.91323 -1.70958 4.95108 0.653841 17.3297 -0.291979 8.75164 3.30302 2.97266 -3.49629 -0.0261113 1.52608 -6.22288 -0.324705 -5.21823 -6.45342 4.41248 -0.151927 13.9575 1.37231 -5.06085 -8.51405 3.30306 2.69565 -9.06023 2.90259 1.34871 5.80641 -3.45784 1.34871 5.80652 -3.45785 4.29506 -6.02918 6.46746 -24.8795 11.293 -10.9411 -51.0788 42.5424 0.0660754 14.873 -3.31474 -30.4219 9.14666 0.982275 -5.46653 -3.18055e-015 0 -0 -3.18055e-015 -7.95139e-016 1.59028e-015 22.2413 9.24585 7.25377 60.1718 21.822 -13.9688 -13.2019 -0.391338 6.64723 -13.5874 -22.3304 -5.89087 -1.2921e-015 7.95139e-016 -0 -2.98177e-015 0 1.59028e-015 -1.91466 -8.81432 7.69249 
33.2999 95.5116 -31.8689 -0.454869 -3.59102 -11.4306 0.68955 2.83731 -1.87591 4.75673 1.5366 18.2117 -0.218599 8.43297 3.57635 3.10998 -3.42752 -0.027691 1.63625 -6.31933 -0.456638 -5.18935 -6.08022 5.06923 -0.229722 13.7853 1.54558 -4.92183 -8.49241 3.68569 2.69891 -9.07017 2.91956 1.47453 5.65028 -3.79285 1.47453 5.65027 -3.79285 4.66783 -5.05159 7.15767 -24.3729 10.5922 -11.9986 -54.1672 41.8893 2.17975 15.0016 -2.76917 -30.4136 9.10297 0.939694 -5.39143 -6.36111e-015 2.38542e-015 3.97569e-015 -6.36111e-015 7.95139e-016 2.38542e-015 22.6096 7.6624 5.396 57.5517 13.833 -13.2491 -13.7946 1.81864 9.42533 -15.093 -22.8122 -4.18583 -2.18663e-015 -1.59028e-015 3.18055e-015 -2.18663e-015 -7.95139e-016 1.59028e-015 -2.00938 -9.11335 8.53701 
33.2951 95.5033 -31.6763 -0.73891 -3.64409 -11.9518 0.79673 2.73753 -2.13343 4.93085 1.90695 19.167 -0.251065 8.75799 3.17352 2.56983 -4.07059 0.000132238 1.23309 -6.02964 -0.0441103 -5.04905 -5.72658 5.70351 -0.210509 13.4809 1.52768 -4.89647 -8.4055 3.8023 2.73687 -9.20186 2.9721 1.69793 5.44316 -4.31213 1.69793 5.44316 -4.31214 4.72242 -4.54953 8.03953 -23.6534 10.1973 -12.4564 -56.8137 42.1931 4.2152 14.9044 -2.82098 -30.5852 9.69502 0.898275 -5.41867 -3.18055e-015 7.95139e-016 -0 -9.54166e-015 7.95139e-016 1.19271e-015 23.732 6.2734 2.95291 55.2179 3.16742 -13.2411 -15.9241 2.00602 15.4514 -18.3096 -23.0957 -4.29404 -3.57812e-015 6.36111e-015 -0 -4.77083e-015 6.36111e-015 -0 -2.06603 -9.60152 9.45215 
33.2927 95.4542 -31.5348 -0.865888 -3.70549 -12.0479 0.912522 2.68883 -2.37632 5.0456 2.04236 18.9562 -0.584459 9.126 3.62421 3.07794 -4.18897 -0.00686457 1.35916 -6.29591 -0.129366 -5.09237 -5.57565 5.89543 -0.14326 13.5698 1.56004 -4.98379 -8.56425 3.79618 2.79893 -9.41282 3.076 1.93917 5.33707 -4.80307 1.93917 5.33708 -4.80308 4.68402 -4.57312 8.90251 -23.1384 10.3856 -12.9048 -58.5899 43.6449 6.18055 15.6874 -2.46955 -30.944 9.53631 0.211793 -5.37061 3.18055e-015 7.95139e-016 4.37326e-015 -1.15865e-031 2.38542e-015 2.78299e-015 23.9671 5.43574 0.643401 54.9061 -9.52431 -14.0896 -19.6283 0.0591526 26.1744 -24.3457 -25.1513 -5.03057 3.18055e-015 3.18055e-015 -7.95139e-015 2.38542e-015 3.18056e-015 -6.36111e-015 -2.74822 -10.0351 10.3832 
